<svg width="28" height="28" viewBox="0 0 28 28" fill="none" xmlns="http://www.w3.org/2000/svg">
<g clip-path="url(#clip0_682_614)">
<path d="M17.7449 21.3973C17.831 21.5293 17.8798 21.6821 17.8862 21.8396C17.8927 21.9971 17.8564 22.1534 17.7814 22.292C17.7063 22.4305 17.5952 22.5463 17.4598 22.6269C17.3244 22.7076 17.1697 22.7502 17.0121 22.7502H0.874893C0.717279 22.7502 0.562597 22.7076 0.427188 22.6269C0.29178 22.5463 0.180674 22.4305 0.105609 22.292C0.0305435 22.1534 -0.00569348 21.9971 0.000726255 21.8396C0.00714599 21.6821 0.0559841 21.5293 0.142081 21.3973C1.37376 19.5014 3.18543 18.0546 5.30677 17.2727C4.13405 16.492 3.24371 15.3546 2.76741 14.0287C2.29111 12.7028 2.25414 11.2589 2.66196 9.91036C3.06979 8.56185 3.90076 7.38038 5.03199 6.54066C6.16322 5.70094 7.53465 5.24756 8.94349 5.24756C10.3523 5.24756 11.7238 5.70094 12.855 6.54066C13.9862 7.38038 14.8172 8.56185 15.225 9.91036C15.6328 11.2589 15.5959 12.7028 15.1196 14.0287C14.6433 15.3546 13.7529 16.492 12.5802 17.2727C14.7015 18.0546 16.5132 19.5014 17.7449 21.3973ZM27.3601 21.3808C26.128 19.493 24.3204 18.0524 22.2052 17.2727C23.5897 16.3401 24.5667 14.915 24.9375 13.2875C25.3082 11.6599 25.0448 9.95223 24.2009 8.51203C23.3569 7.07183 21.9959 6.00736 20.3948 5.53528C18.7937 5.06321 17.0728 5.21902 15.5826 5.971C15.5256 6.00043 15.4757 6.04202 15.4366 6.09283C15.3975 6.14365 15.37 6.20245 15.3561 6.26506C15.3423 6.32768 15.3423 6.39258 15.3563 6.45517C15.3703 6.51776 15.3979 6.5765 15.4371 6.62725C16.5452 8.00954 17.1816 9.71036 17.2531 11.4806C17.3245 13.2508 16.8273 14.9973 15.8341 16.4644C15.7699 16.5603 15.7462 16.6777 15.7681 16.791C15.79 16.9042 15.8558 17.0043 15.9511 17.0693C17.246 17.973 18.3545 19.1179 19.216 20.4413C19.5634 20.9734 19.7053 21.6137 19.6152 22.2427C19.6051 22.3053 19.6086 22.3693 19.6257 22.4304C19.6427 22.4914 19.6728 22.548 19.7139 22.5963C19.755 22.6446 19.8061 22.6833 19.8637 22.7099C19.9212 22.7365 19.9838 22.7502 20.0472 22.7502H26.6426C26.8352 22.7503 27.0225 22.6867 27.1754 22.5695C27.3283 22.4522 27.4382 22.2877 27.488 22.1016C27.5184 21.9792 27.5228 21.8518 27.5007 21.7276C27.4787 21.6034 27.4307 21.4853 27.3601 21.3808Z" fill="#9CA3AF"/>
</g>
<defs>
<clipPath id="clip0_682_614">
<rect width="28" height="28" fill="white"/>
</clipPath>
</defs>
</svg>
